<?xml version="1.0" encoding="UTF-8"?>
<svg xmlns="http://www.w3.org/2000/svg" xmlns:xlink="http://www.w3.org/1999/xlink" width="36pt" height="36pt" viewBox="0 0 36 36" version="1.1">
<g id="surface1">
<path style=" stroke:none;fill-rule:nonzero;fill:rgb(0%,0%,0%);fill-opacity:1;" d="M 35.980469 22.53125 C 35.890625 20.46875 35.53125 18.179688 34.996094 16.027344 C 34.457031 13.964844 33.785156 12.039062 32.976562 10.558594 C 29.835938 5.042969 26.429688 5.894531 22.347656 6.96875 C 21.050781 7.285156 19.660156 7.644531 18.222656 7.777344 L 17.777344 7.777344 C 16.339844 7.644531 14.949219 7.285156 13.652344 6.96875 C 9.570312 5.9375 6.164062 5.042969 3.023438 10.601562 C 2.214844 12.082031 1.5 14.011719 1.007812 16.074219 C 0.46875 18.226562 0.109375 20.511719 0.0195312 22.574219 C -0.0703125 24.863281 0.152344 26.519531 0.648438 27.6875 C 1.140625 28.761719 1.859375 29.433594 2.800781 29.703125 C 3.652344 29.929688 4.636719 29.839844 5.667969 29.390625 C 7.417969 28.671875 9.4375 27.148438 11.410156 25.308594 C 12.796875 23.964844 15.398438 23.292969 18 23.292969 C 20.601562 23.292969 23.203125 23.964844 24.589844 25.308594 C 26.5625 27.148438 28.582031 28.671875 30.332031 29.390625 C 31.363281 29.792969 32.347656 29.929688 33.199219 29.703125 C 34.097656 29.433594 34.859375 28.808594 35.351562 27.640625 C 35.847656 26.519531 36.070312 24.863281 35.980469 22.53125 Z M 33.828125 27.015625 C 33.558594 27.640625 33.199219 28 32.753906 28.132812 C 32.257812 28.269531 31.632812 28.179688 30.914062 27.910156 C 29.34375 27.28125 27.507812 25.894531 25.710938 24.1875 C 24.007812 22.484375 21.003906 21.632812 18 21.632812 C 14.996094 21.632812 11.992188 22.484375 10.242188 24.097656 C 8.40625 25.804688 6.566406 27.238281 5.042969 27.820312 C 4.324219 28.089844 3.695312 28.222656 3.203125 28.046875 C 2.753906 27.910156 2.394531 27.550781 2.125 26.925781 C 1.769531 26.070312 1.589844 24.683594 1.679688 22.621094 C 1.769531 20.691406 2.082031 18.496094 2.621094 16.429688 C 3.113281 14.503906 3.742188 12.710938 4.503906 11.363281 C 6.96875 6.925781 9.839844 7.644531 13.246094 8.539062 C 14.636719 8.898438 16.070312 9.257812 17.640625 9.390625 C 17.6875 9.390625 17.6875 9.390625 17.730469 9.390625 L 18.222656 9.390625 C 18.269531 9.390625 18.269531 9.390625 18.3125 9.390625 C 19.929688 9.257812 21.363281 8.898438 22.753906 8.539062 C 26.160156 7.6875 29.03125 6.925781 31.496094 11.363281 C 32.257812 12.710938 32.886719 14.457031 33.378906 16.429688 C 33.875 18.496094 34.230469 20.648438 34.320312 22.621094 C 34.410156 24.683594 34.230469 26.070312 33.828125 27.015625 Z M 33.828125 27.015625 "/>
<path style=" stroke:none;fill-rule:nonzero;fill:rgb(0%,0%,0%);fill-opacity:1;" d="M 13.875 13.785156 C 13.425781 13.382812 12.886719 13.070312 12.261719 13.023438 C 12.214844 12.441406 11.945312 11.859375 11.542969 11.453125 L 11.5 11.410156 C 11.003906 10.917969 10.378906 10.648438 9.660156 10.648438 C 8.941406 10.648438 8.269531 10.960938 7.820312 11.410156 C 7.417969 11.8125 7.105469 12.394531 7.058594 13.023438 C 6.429688 13.070312 5.894531 13.335938 5.445312 13.742188 L 5.398438 13.785156 C 4.90625 14.277344 4.636719 14.90625 4.636719 15.625 C 4.636719 16.34375 4.953125 17.015625 5.398438 17.460938 C 5.847656 17.910156 6.386719 18.179688 7.058594 18.226562 C 7.105469 18.851562 7.375 19.4375 7.820312 19.839844 C 8.316406 20.332031 8.941406 20.601562 9.660156 20.601562 C 10.378906 20.601562 11.050781 20.289062 11.5 19.839844 C 11.902344 19.390625 12.214844 18.851562 12.261719 18.226562 C 12.886719 18.179688 13.472656 17.910156 13.875 17.460938 C 14.367188 16.96875 14.636719 16.34375 14.636719 15.625 C 14.636719 14.90625 14.324219 14.234375 13.875 13.785156 Z M 12.753906 16.296875 C 12.574219 16.476562 12.351562 16.566406 12.082031 16.566406 L 11.453125 16.566406 C 11.003906 16.566406 10.601562 16.925781 10.601562 17.417969 L 10.601562 18 C 10.601562 18.269531 10.511719 18.496094 10.332031 18.671875 C 10.152344 18.851562 9.929688 18.941406 9.660156 18.941406 C 9.390625 18.941406 9.167969 18.851562 8.988281 18.671875 C 8.808594 18.496094 8.71875 18.269531 8.71875 18 L 8.71875 17.375 C 8.71875 16.925781 8.359375 16.519531 7.867188 16.519531 L 7.238281 16.519531 C 6.96875 16.519531 6.746094 16.429688 6.566406 16.253906 C 6.429688 16.117188 6.296875 15.894531 6.296875 15.625 C 6.296875 15.355469 6.386719 15.132812 6.566406 14.953125 C 6.566406 14.953125 6.566406 14.953125 6.609375 14.90625 C 6.789062 14.773438 7.015625 14.683594 7.238281 14.683594 L 7.867188 14.683594 C 8.316406 14.683594 8.71875 14.324219 8.71875 13.832031 L 8.71875 13.203125 C 8.71875 12.933594 8.808594 12.710938 8.988281 12.53125 C 9.167969 12.351562 9.390625 12.261719 9.660156 12.261719 C 9.929688 12.261719 10.152344 12.351562 10.332031 12.53125 C 10.332031 12.53125 10.332031 12.53125 10.378906 12.574219 C 10.511719 12.753906 10.601562 12.980469 10.601562 13.203125 L 10.601562 13.832031 C 10.601562 14.277344 10.960938 14.683594 11.453125 14.683594 L 12.082031 14.683594 C 12.351562 14.683594 12.574219 14.773438 12.753906 14.953125 C 12.933594 15.132812 13.023438 15.355469 13.023438 15.625 C 13.023438 15.894531 12.933594 16.117188 12.753906 16.296875 Z M 12.753906 16.296875 "/>
<path style=" stroke:none;fill-rule:nonzero;fill:rgb(0%,0%,0%);fill-opacity:1;" d="M 27.371094 12.441406 C 27.371094 13.308594 26.667969 14.011719 25.800781 14.011719 C 24.933594 14.011719 24.234375 13.308594 24.234375 12.441406 C 24.234375 11.574219 24.933594 10.871094 25.800781 10.871094 C 26.667969 10.871094 27.371094 11.574219 27.371094 12.441406 Z M 27.371094 12.441406 "/>
<path style=" stroke:none;fill-rule:nonzero;fill:rgb(0%,0%,0%);fill-opacity:1;" d="M 27.371094 18.808594 C 27.371094 19.675781 26.667969 20.378906 25.800781 20.378906 C 24.933594 20.378906 24.234375 19.675781 24.234375 18.808594 C 24.234375 17.941406 24.933594 17.238281 25.800781 17.238281 C 26.667969 17.238281 27.371094 17.941406 27.371094 18.808594 Z M 27.371094 18.808594 "/>
<path style=" stroke:none;fill-rule:nonzero;fill:rgb(0%,0%,0%);fill-opacity:1;" d="M 24.1875 15.625 C 24.1875 16.492188 23.484375 17.195312 22.617188 17.195312 C 21.75 17.195312 21.050781 16.492188 21.050781 15.625 C 21.050781 14.757812 21.75 14.054688 22.617188 14.054688 C 23.484375 14.054688 24.1875 14.757812 24.1875 15.625 Z M 24.1875 15.625 "/>
<path style=" stroke:none;fill-rule:nonzero;fill:rgb(0%,0%,0%);fill-opacity:1;" d="M 30.554688 15.625 C 30.554688 16.492188 29.851562 17.195312 28.984375 17.195312 C 28.117188 17.195312 27.417969 16.492188 27.417969 15.625 C 27.417969 14.757812 28.117188 14.054688 28.984375 14.054688 C 29.851562 14.054688 30.554688 14.757812 30.554688 15.625 Z M 30.554688 15.625 "/>
</g>
</svg>
